<?xml version="1.0" standalone="no"?><!DOCTYPE svg PUBLIC "-//W3C//DTD SVG 1.1//EN" "http://www.w3.org/Graphics/SVG/1.1/DTD/svg11.dtd"><svg class="icon" width="200px" height="200.00px" viewBox="0 0 1024 1024" version="1.1" xmlns="http://www.w3.org/2000/svg"><path d="M517.290667 149.333333a136.832 136.832 0 0 0-136.533334 132.266667h-172.8a34.901333 34.901333 0 0 0 0 69.76h38.4v390.101333a123.733333 123.733333 0 0 0 110.933334 133.077334h312.661333a123.733333 123.733333 0 0 0 110.933333-133.077334V351.701333h34.858667a34.901333 34.901333 0 0 0 0-69.76h-162.133333a136.533333 136.533333 0 0 0-136.533334-132.608z m-71.381334 132.266667a71.466667 71.466667 0 0 1 142.634667 0zM357.333333 809.429333c-21.717333 0-45.696-27.904-45.696-67.882666V351.701333h404.053334v390.314667c0 39.850667-23.936 67.882667-45.696 67.882667H357.333333z m0 0" fill="#707070" /><path d="M404.010667 725.674667a33.024 33.024 0 0 0 29.056-35.925334v-204.8a29.866667 29.866667 0 1 0-58.112 0v204.8a32.853333 32.853333 0 0 0 29.056 35.925334z m105.173333 0a33.024 33.024 0 0 0 29.056-35.925334v-204.8a29.866667 29.866667 0 1 0-58.112 0v204.8a33.109333 33.109333 0 0 0 29.269333 35.925334z m110.677333 0a33.024 33.024 0 0 0 29.056-35.925334v-204.8a29.866667 29.866667 0 1 0-58.112 0v204.8a32.768 32.768 0 0 0 29.226667 35.925334z m0 0" fill="#707070" /></svg>